<svg width="18" height="18" viewBox="0 0 18 18" fill="none" xmlns="http://www.w3.org/2000/svg">
<path d="M15 14C15.8284 14 16.5 13.3284 16.5 12.5C16.5 11.6716 15.8284 11 15 11C14.1716 11 13.5 11.6716 13.5 12.5C13.5 13.3284 14.1716 14 15 14Z" fill="#4B4B4B"/>
<path d="M15 7C15.8284 7 16.5 6.32843 16.5 5.5C16.5 4.67157 15.8284 4 15 4C14.1716 4 13.5 4.67157 13.5 5.5C13.5 6.32843 14.1716 7 15 7Z" fill="#4B4B4B"/>
<path d="M9 17.5C9.82843 17.5 10.5 16.8284 10.5 16C10.5 15.1716 9.82843 14.5 9 14.5C8.17157 14.5 7.5 15.1716 7.5 16C7.5 16.8284 8.17157 17.5 9 17.5Z" fill="#4B4B4B"/>
<path d="M3 7C3.82843 7 4.5 6.32843 4.5 5.5C4.5 4.67157 3.82843 4 3 4C2.17157 4 1.5 4.67157 1.5 5.5C1.5 6.32843 2.17157 7 3 7Z" fill="#4B4B4B"/>
<path d="M3 14C3.82843 14 4.5 13.3284 4.5 12.5C4.5 11.6716 3.82843 11 3 11C2.17157 11 1.5 11.6716 1.5 12.5C1.5 13.3284 2.17157 14 3 14Z" fill="#4B4B4B"/>
<path d="M9 2L15.0622 5.5V12.5L9 16L2.93782 12.5V5.5L9 2Z" fill="#4B4B4B"/>
<path d="M8.35593 14.5C7.80226 14.5 7.36441 14.332 7.04237 13.9961C6.68079 13.6255 6.5 13.084 6.5 12.3716C6.5 12.0357 6.5452 11.6477 6.63559 11.2075L7.81356 5.5H10.3136L9.0678 11.5463C9.0226 11.6969 9 11.888 9 12.1197C9 12.3629 9.05367 12.5338 9.16102 12.6322C9.27401 12.7307 9.4548 12.7799 9.70339 12.7799C9.87288 12.7799 10.0367 12.7423 10.1949 12.667C10.3588 12.5859 10.5085 12.4759 10.6441 12.3369C10.9209 12.0531 11.1299 11.6766 11.2712 11.2075H12C11.6893 12.1052 11.2994 12.8205 10.8305 13.3533C10.435 13.7876 9.9887 14.1004 9.49153 14.2915C9.12994 14.4305 8.75141 14.5 8.35593 14.5Z" fill="white"/>
<path d="M9 4C9.82843 4 10.5 3.32843 10.5 2.5C10.5 1.67157 9.82843 1 9 1C8.17157 1 7.5 1.67157 7.5 2.5C7.5 3.32843 8.17157 4 9 4Z" fill="white"/>
</svg>
